<svg width="498" height="501" viewBox="0 0 498 501" fill="none" xmlns="http://www.w3.org/2000/svg">
<path d="M234.93 10.8716C240.502 10.8754 246.073 10.8741 251.645 10.8698C272.659 10.8546 293.673 10.8871 314.686 10.9893C317.019 11.0003 319.352 11.0102 321.685 11.0199C330.836 11.059 339.987 11.1224 349.138 11.2173C351.949 11.2459 354.761 11.266 357.573 11.278C390.562 11.4321 421.717 17.2014 447 40.0002C447.92 40.704 448.841 41.4079 449.789 42.133C450.884 43.0573 450.884 43.0573 452 44.0002C452 44.6602 452 45.3202 452 46.0002C453.32 46.6602 454.64 47.3202 456 48.0002C456 48.6602 456 49.3202 456 50.0002C456.99 50.3302 457.98 50.6602 459 51.0002C460.662 52.9492 462.185 54.8737 463.688 56.9377C464.311 57.7643 464.311 57.7643 464.947 58.6076C468 62.7331 468 62.7331 468 65.0002C468.66 65.0002 469.32 65.0002 470 65.0002C487.495 97.5604 490.155 126.789 490.145 163.31C490.148 165.548 490.152 167.786 490.156 170.025C490.164 176.033 490.167 182.041 490.167 188.049C490.168 191.816 490.17 195.583 490.173 199.35C490.182 211.851 490.186 224.352 490.185 236.854C490.185 237.858 490.185 237.858 490.185 238.883C490.185 239.553 490.185 240.224 490.185 240.914C490.185 251.79 490.194 262.665 490.208 273.541C490.223 284.77 490.23 296 490.229 307.23C490.229 313.509 490.231 319.789 490.242 326.069C490.252 331.973 490.252 337.877 490.245 343.781C490.244 345.933 490.246 348.084 490.252 350.235C490.287 363.299 489.654 376.039 488 389C487.876 390.029 487.752 391.058 487.624 392.119C484.962 412.503 473.701 431.366 461 447C460.45 447.78 459.899 448.56 459.332 449.363C458.893 449.904 458.453 450.444 458 451C457.34 451 456.68 451 456 451C455.34 452.32 454.68 453.64 454 455C453.34 455 452.68 455 452 455C451.78 455.573 451.559 456.145 451.332 456.735C442.564 471.648 415.704 481.736 400 486C390.018 488.538 380.168 489.268 369.9 489.574C369.249 489.594 368.597 489.614 367.926 489.635C347.716 490.246 327.493 490.147 307.275 490.135C301.551 490.132 295.826 490.134 290.102 490.136C280.506 490.138 270.909 490.135 261.313 490.131C250.289 490.125 239.265 490.127 228.241 490.132C218.69 490.137 209.139 490.138 199.588 490.135C193.921 490.133 188.254 490.133 182.587 490.137C142.215 490.157 142.215 490.157 127.216 489.601C126.294 489.569 125.372 489.536 124.422 489.503C94.9873 488.152 68.007 475.317 47.0001 455C46.1712 454.223 45.3423 453.446 44.4883 452.645C36.3813 444.868 30.494 435.746 25.0001 426C24.4947 425.109 23.9894 424.219 23.4688 423.301C19.4148 415.72 16.7319 407.879 14.6496 399.563C14.2101 397.829 13.7405 396.103 13.2437 394.384C10.1004 382.176 10.5633 369.863 10.5801 357.342C10.5728 354.755 10.5642 352.168 10.5545 349.581C10.5335 343.31 10.5289 337.038 10.5307 330.767C10.532 325.661 10.5281 320.554 10.5207 315.448C10.4979 299.344 10.4923 283.24 10.5002 267.136C10.5058 254.484 10.485 241.832 10.4519 229.179C10.418 216.141 10.403 203.102 10.4076 190.064C10.4098 182.762 10.4048 175.462 10.3797 168.16C10.3563 161.285 10.3595 154.41 10.3796 147.535C10.383 145.029 10.3781 142.522 10.3637 140.016C10.201 109.639 17.042 81.4663 36.0001 57.0002C36.6601 57.0002 37.3201 57.0002 38.0001 57.0002C38.2695 56.4163 38.5389 55.8323 38.8165 55.2307C43.1068 47.1456 50.8909 41.4657 58.0001 36.0002C58.7812 35.3918 59.5624 34.7833 60.3672 34.1565C83.9339 16.6997 110.815 11.618 139.492 11.3205C141.746 11.2877 144 11.2544 146.254 11.2205C175.81 10.8122 205.372 10.8495 234.93 10.8716ZM136.813 131.75C132.431 139.607 132.693 147.627 132.699 156.406C132.695 157.686 132.691 158.965 132.686 160.283C132.679 162.979 132.679 165.676 132.684 168.372C132.69 171.808 132.673 175.244 132.65 178.68C132.632 181.985 132.635 185.289 132.637 188.594C132.628 189.818 132.618 191.042 132.609 192.304C132.664 202.587 134.752 210.398 142 218C146.85 221.643 151.602 223.088 157.585 223.206C158.936 223.235 158.936 223.235 160.314 223.266C161.278 223.283 162.242 223.299 163.234 223.317C164.228 223.337 165.221 223.358 166.244 223.38C169.413 223.445 172.581 223.504 175.75 223.563C177.9 223.606 180.05 223.65 182.199 223.694C187.466 223.801 192.733 223.902 198 224C198.191 225.026 198.382 226.051 198.579 227.108C198.84 228.469 199.102 229.83 199.363 231.192C199.488 231.866 199.613 232.54 199.741 233.234C201.628 242.95 206.37 249.777 214 256C216.914 257.865 219.884 259.5 223 261C218.779 283.892 209.164 301.748 190.188 315.625C175.905 325.357 160.951 328.449 144 329C144 320.75 144 312.5 144 304C136.08 304 128.16 304 120 304C120 329.08 120 354.16 120 380C127.92 380 135.84 380 144 380C144.33 371.75 144.66 363.5 145 355C147.516 354.732 150.033 354.464 152.625 354.188C175.106 351.565 193.403 344.717 211.125 330.481C212.692 329.243 214.339 328.108 216 327C216 326.34 216 325.68 216 325C217.32 324.34 218.64 323.68 220 323C220 322.34 220 321.68 220 321C220.66 321 221.32 321 222 321C223.816 319.056 223.816 319.056 225.625 316.625C226.257 315.813 226.888 315.001 227.539 314.164C229.187 312.159 229.187 312.159 229 310C229.66 310 230.32 310 231 310C236.032 301.559 240.527 293.227 244 284C244.297 283.268 244.593 282.536 244.898 281.781C247.535 274.785 248.173 267.383 249 260C249.897 259.726 250.794 259.451 251.719 259.168C260.906 255.898 267.957 249.524 272.25 240.813C274.553 234.937 274.553 234.937 276 224C300.75 223.67 325.5 223.34 351 223C353.791 216.024 356.175 209.384 358.125 202.188C358.415 201.135 358.705 200.083 359.004 198.998C359.826 196.003 360.643 193.007 361.455 190.01C362.03 187.889 362.606 185.768 363.183 183.648C365.527 175.015 367.859 166.378 370.182 157.739C371.506 152.82 372.846 147.905 374.195 142.992C374.688 141.189 374.688 141.189 375.191 139.35C375.797 137.137 376.406 134.926 377.02 132.715C377.284 131.746 377.548 130.776 377.82 129.778C378.165 128.528 378.165 128.528 378.516 127.254C379.14 124.733 379.14 124.733 379 121C350.362 120.909 321.724 120.838 293.086 120.796C289.703 120.791 286.32 120.786 282.937 120.78C282.263 120.779 281.59 120.778 280.896 120.777C269.999 120.76 259.103 120.728 248.206 120.692C237.02 120.654 225.834 120.632 214.648 120.624C208.367 120.619 202.087 120.606 195.806 120.577C189.892 120.55 183.979 120.542 178.065 120.548C175.896 120.547 173.728 120.539 171.56 120.523C168.594 120.503 165.628 120.508 162.662 120.519C161.809 120.508 160.956 120.496 160.077 120.484C150.667 120.577 142.706 124.342 136.813 131.75Z" fill="#1E338E"/>
<path d="M163.049 144.872C163.778 144.875 164.507 144.878 165.257 144.881C166.026 144.88 166.794 144.879 167.586 144.878C170.181 144.876 172.776 144.882 175.371 144.887C177.223 144.888 179.076 144.887 180.928 144.887C185.973 144.887 191.019 144.892 196.064 144.899C201.33 144.906 206.597 144.906 211.863 144.907C221.843 144.911 231.824 144.919 241.804 144.929C253.163 144.94 264.522 144.945 275.881 144.951C299.254 144.961 322.627 144.979 346 145.001C347.096 148.291 346.932 149.028 345.996 152.227C345.752 153.083 345.509 153.938 345.258 154.82C344.987 155.746 344.716 156.672 344.437 157.626C341.154 169.21 338.319 180.88 335.569 192.601C335.062 194.739 334.535 196.87 334 199.001C311.07 199.024 288.139 199.042 265.209 199.053C254.563 199.058 243.917 199.065 233.271 199.076C223.995 199.086 214.719 199.093 205.444 199.095C200.529 199.096 195.615 199.099 190.7 199.107C186.08 199.113 181.46 199.115 176.84 199.114C175.139 199.114 173.438 199.116 171.737 199.12C169.425 199.125 167.114 199.124 164.802 199.121C163.505 199.122 162.208 199.123 160.871 199.124C158 199.001 158 199.001 157 198.001C156.901 196.38 156.872 194.754 156.87 193.13C156.867 192.092 156.864 191.054 156.861 189.985C156.863 188.856 156.865 187.727 156.867 186.563C156.866 184.838 156.866 184.838 156.864 183.077C156.863 180.639 156.865 178.201 156.869 175.764C156.875 172.017 156.869 168.271 156.863 164.524C156.864 162.162 156.865 159.8 156.867 157.438C156.865 156.309 156.863 155.18 156.861 154.017C156.864 152.979 156.867 151.941 156.87 150.872C156.871 149.953 156.872 149.035 156.873 148.088C157.122 143.991 159.516 144.882 163.049 144.872Z" fill="#1E328D"/>
<path d="M226.592 222.887C227.718 222.892 228.844 222.897 230.004 222.903C231.219 222.906 232.434 222.909 233.686 222.912C234.965 222.921 236.244 222.929 237.562 222.938C238.846 222.942 240.129 222.947 241.451 222.951C244.634 222.963 247.817 222.98 251 223C251.344 229.379 251.344 229.379 249.793 232.18C249.263 232.739 248.733 233.299 248.188 233.875C247.665 234.45 247.143 235.025 246.605 235.617C243.259 238.5 239.469 238.273 235.285 238.219C231.076 237.816 228.186 236.145 225.188 233.25C223.579 230.202 223.258 227.414 223 224C224 223 224 223 226.592 222.887Z" fill="#1E318A"/>
<path fill-rule="evenodd" clip-rule="evenodd" d="M132.697 155.032C132.678 146.786 132.661 139.195 136.812 131.751C142.705 124.342 150.667 120.577 160.077 120.484L162.662 120.52C165.628 120.509 168.594 120.504 171.56 120.524C173.728 120.539 175.896 120.547 178.065 120.548C183.979 120.542 189.892 120.551 195.806 120.578C202.087 120.607 208.367 120.619 214.648 120.624C225.834 120.633 237.02 120.655 248.206 120.692C259.103 120.729 269.999 120.76 280.896 120.778L282.937 120.781C286.32 120.786 289.703 120.791 293.086 120.796C321.724 120.839 350.362 120.909 379 121.001V121.001V121.001C379.082 123.196 379.116 124.1 379.003 124.985C378.924 125.605 378.773 126.216 378.516 127.254L377.82 129.778L377.02 132.716C376.406 134.926 375.797 137.138 375.191 139.35L374.195 142.993C372.846 147.905 371.506 152.82 370.182 157.74C367.859 166.379 365.527 175.015 363.183 183.648C362.606 185.769 362.03 187.89 361.455 190.011C360.643 193.008 359.826 196.004 359.004 198.999L358.125 202.188C356.175 209.384 353.791 216.024 351 223.001L276 224.001C275.082 230.937 274.746 233.474 274.036 235.902C273.626 237.301 273.092 238.664 272.25 240.813C267.957 249.525 260.906 255.898 251.719 259.169L249 260.001C248.929 260.632 248.86 261.262 248.791 261.893C248.05 268.645 247.31 275.383 244.898 281.782L244 284.001C240.527 293.227 236.032 301.56 231 310.001H229C229.086 310.995 229.132 311.532 228.996 312.017C228.837 312.585 228.428 313.083 227.539 314.165L227.539 314.165L225.625 316.626L225.625 316.626L225.624 316.627C224.662 317.92 224.212 318.526 223.727 319.102C223.301 319.608 222.849 320.092 222 321.001H220V323.001L216 325.001V327.001C214.339 328.108 212.692 329.244 211.125 330.481C193.403 344.718 175.106 351.566 152.625 354.188L145 355.001L144 380.001H120V304.001H144V329.001C160.951 328.449 175.905 325.358 190.188 315.626C209.164 301.748 218.779 283.893 223 261.001C219.884 259.5 216.914 257.865 214 256.001C206.37 249.777 201.628 242.95 199.741 233.235L199.363 231.192C199.102 229.831 198.84 228.47 198.579 227.108L198 224.001C192.733 223.903 187.466 223.801 182.199 223.694C180.049 223.65 177.9 223.606 175.75 223.563C172.581 223.504 169.413 223.445 166.244 223.38L163.234 223.317L160.314 223.266L157.585 223.206C151.602 223.088 146.85 221.644 142 218.001C134.751 210.398 132.664 202.587 132.609 192.304L132.637 188.594L132.636 187.58V187.579C132.635 184.613 132.633 181.647 132.65 178.68C132.673 175.244 132.69 171.808 132.684 168.372C132.679 165.676 132.679 162.98 132.686 160.284L132.699 156.407C132.699 155.947 132.698 155.489 132.697 155.033V155.032V155.032ZM163.049 144.872L165.257 144.881L167.586 144.878C170.152 144.877 172.719 144.882 175.285 144.888H175.285L175.371 144.888C177.223 144.888 179.076 144.888 180.928 144.887C185.973 144.887 191.019 144.893 196.064 144.9C200.835 144.906 205.607 144.907 210.378 144.908L211.863 144.908C221.843 144.911 231.823 144.919 241.804 144.929C253.163 144.94 264.522 144.946 275.88 144.951C299.254 144.961 322.627 144.979 346 145.001C347.096 148.291 346.931 149.029 345.996 152.228L345.258 154.82L344.437 157.626C341.154 169.211 338.319 180.88 335.569 192.601C335.062 194.739 334.535 196.87 334 199.001C311.069 199.025 288.139 199.042 265.209 199.053C254.563 199.058 243.917 199.065 233.27 199.077C223.995 199.087 214.719 199.093 205.444 199.095C200.529 199.097 195.614 199.1 190.7 199.107C186.08 199.114 181.46 199.116 176.839 199.114C175.139 199.115 173.438 199.117 171.737 199.121C169.425 199.125 167.113 199.124 164.802 199.122L160.871 199.124H160.871C158 199.001 158 199.001 157 198.001C156.901 196.38 156.872 194.755 156.87 193.13L156.861 189.985L156.867 186.564L156.864 183.078C156.863 180.64 156.865 178.202 156.869 175.764C156.875 172.018 156.869 168.271 156.863 164.525C156.864 162.163 156.865 159.801 156.867 157.439L156.861 154.017L156.87 150.872L156.873 148.089C157.082 144.656 158.796 144.725 161.425 144.831C161.934 144.852 162.477 144.874 163.049 144.872ZM230.004 222.903L226.592 222.887C224.956 222.959 224.353 222.985 223.878 223.247C223.602 223.399 223.369 223.632 223 224.001C223.258 227.415 223.578 230.202 225.187 233.251C228.186 236.146 231.076 237.817 235.285 238.219C235.512 238.222 235.738 238.226 235.963 238.229C239.879 238.289 243.441 238.344 246.605 235.618L248.187 233.876L249.793 232.18C250.327 231.215 250.678 230.582 250.893 229.907C251.303 228.622 251.226 227.181 251 223.001C247.817 222.98 244.634 222.964 241.451 222.952L237.562 222.938L233.685 222.913L230.004 222.903Z" fill="white"/>
</svg>
